P3
# CREATOR: GIMP PNM Filter Version 1.1
52 28
255
255
255
255
255
255
255
255
255
255
255
255
255
255
255
255
255
255
255
255
255
255
255
255
255
255
255
255
255
255
255
100
0
0
100
0
0
100
0
0
100
0
0
100
0
0
50
200
255
100
0
0
0
255
0
100
0
0
50
200
255
100
0
0
100
0
0
0
0
0
0
0
0
0
0
0
0
0
0
0
0
0
0
0
0
100
0
0
100
0
0
50
200
255
100
0
0
100
0
0
50
200
255
100
0
0
100
0
0
0
0
0
0
0
0
0
0
0
0
0
0
0
0
0
0
0
0
100
0
0
100
0
0
0
255
0
0
255
0
255
150
0
100
0
0
100
0
0
100
0
0
150
150
0
100
0
0
255
255
255
255
255
255
255
255
255
255
255
255
255
255
255
255
255
255
255
255
255
255
255
255
255
255
255
255
255
255
150
150
0
150
150
0
150
150
0
100
0
0
0
0
0
0
0
0
0
0
0
0
0
0
0
0
0
0
0
0
0
0
0
100
0
0
0
0
0
0
0
0
0
0
0
0
0
0
0
0
0
0
0
0
100
0
0
0
0
0
0
0
0
0
0
0
0
0
0
0
0
0
0
0
0
100
0
0
0
0
0
0
0
0
0
0
0
0
0
0
0
0
0
0
0
0
100
0
0
0
0
0
0
0
0
0
0
0
0
0
0
0
0
0
0
0
0
100
0
0
150
150
0
100
0
0
255
255
255
255
255
255
255
255
255
255
255
255
255
255
255
255
255
255
255
255
255
255
255
255
255
255
255
255
255
255
100
0
0
255
255
0
100
0
0
100
0
0
0
0
0
0
0
0
0
0
0
0
0
0
0
0
0
0
0
0
0
0
0
100
0
0
100
0
0
255
150
0
0
255
0
0
255
0
255
150
0
100
0
0
100
0
0
0
0
0
0
0
0
0
0
0
0
0
0
0
0
0
0
0
0
100
0
0
100
0
0
100
0
0
255
150
0
0
255
0
0
255
0
100
0
0
100
0
0
0
0
0
0
0
0
0
0
0
0
0
0
0
0
0
0
0
0
100
0
0
150
150
0
100
0
0
255
255
255
255
255
255
255
255
255
255
255
255
255
255
255
255
255
255
255
255
255
255
255
255
255
255
255
255
255
255
0
0
255
50
200
255
0
0
255
255
255
255
255
255
255
255
255
255
255
255
255
255
255
255
255
255
255
255
255
255
255
255
255
255
255
255
255
255
255
255
255
255
255
255
255
255
255
255
255
255
255
255
255
255
255
255
255
255
255
255
255
255
255
255
255
255
255
255
255
255
255
255
255
255
255
255
255
255
255
255
255
255
255
255
255
255
255
255
255
255
255
255
255
255
255
255
255
255
255
255
255
255
255
255
255
255
255
255
255
255
255
255
255
255
255
255
255
100
0
0
100
0
0
100
0
0
255
255
255
255
255
255
255
255
255
255
255
255
255
255
255
255
255
255
255
255
255
255
255
255
255
255
255
255
255
255
100
0
0
255
255
0
100
0
0
255
255
255
255
255
255
255
255
255
255
255
255
255
255
255
255
255
255
255
255
255
255
255
255
255
255
255
255
255
255
255
255
255
255
255
255
255
255
255
255
255
255
255
255
255
255
255
255
255
255
255
255
255
255
255
255
255
255
255
255
255
255
255
255
255
255
255
255
255
255
255
255
255
255
255
255
255
255
255
255
255
255
255
255
255
255
254
255
255
255
255
255
255
255
255
255
255
255
255
255
255
255
255
255
255
255
255
255
100
0
0
255
255
0
100
0
0
255
255
255
255
255
255
255
255
255
255
255
255
255
255
255
255
255
255
255
255
255
255
255
255
255
255
255
255
255
255
100
0
0
150
150
0
100
0
0
100
0
0
0
255
0
100
0
0
100
0
0
0
0
0
0
0
0
0
0
0
0
0
0
0
0
0
100
0
0
100
0
0
255
150
0
100
0
0
255
150
0
100
0
0
255
150
0
100
0
0
100
0
0
100
0
0
100
0
0
100
0
0
255
255
255
255
255
255
255
255
255
255
255
255
255
255
255
254
254
254
255
255
255
255
255
254
255
255
255
255
255
255
255
255
255
255
255
255
255
255
255
255
255
255
255
255
255
100
0
0
255
255
0
100
0
0
255
255
255
255
255
255
255
255
255
255
255
255
255
255
255
255
255
255
255
255
255
255
255
255
255
255
255
255
255
255
100
0
0
150
150
0
100
0
0
100
0
0
0
255
0
100
0
0
100
0
0
0
0
0
0
0
0
0
0
0
0
0
0
0
0
0
100
0
0
100
0
0
0
0
0
0
0
0
0
0
0
0
0
0
0
0
0
100
0
0
100
0
0
150
50
0
150
50
0
150
50
0
255
255
255
255
255
255
255
255
255
255
255
255
255
255
255
254
255
255
255
255
255
254
254
254
255
255
255
255
255
255
255
255
255
255
255
255
255
255
255
255
255
255
255
255
255
100
0
0
255
255
0
100
0
0
255
255
255
255
255
255
255
255
255
255
255
255
255
255
255
255
255
255
255
255
255
255
255
255
255
255
255
255
255
255
100
0
0
150
150
0
100
0
0
100
0
0
0
255
0
100
0
0
100
0
0
255
150
0
100
0
0
255
150
0
100
0
0
255
150
0
100
0
0
100
0
0
0
0
0
0
0
0
0
0
0
0
0
0
0
0
0
100
0
0
100
0
0
100
0
0
100
0
0
100
0
0
255
255
255
255
255
255
255
255
255
255
255
255
255
255
255
255
255
254
255
255
255
255
255
255
255
255
255
255
255
255
255
255
255
255
255
255
255
255
255
255
255
255
255
255
255
100
0
0
255
255
0
100
0
0
255
255
255
255
255
255
255
255
255
255
255
255
255
255
255
255
255
255
255
255
255
255
255
255
255
255
255
255
255
255
255
255
255
255
255
255
255
255
255
255
255
255
255
255
255
255
255
255
255
255
255
255
255
255
255
255
255
255
255
255
255
255
255
255
255
255
255
255
255
255
255
255
255
255
255
255
255
255
255
255
255
255
255
255
255
255
255
255
255
255
255
255
255
100
0
0
255
150
0
100
0
0
255
255
255
255
255
255
255
255
255
255
255
255
255
255
255
255
254
253
255
255
255
255
255
255
255
255
255
255
255
255
255
255
255
255
255
255
255
255
255
255
255
255
255
255
255
100
0
0
255
255
0
100
0
0
255
255
255
255
255
255
255
255
255
255
255
255
255
255
255
255
255
255
255
255
255
255
255
255
255
255
255
255
255
255
255
255
255
255
255
255
255
255
255
255
255
255
255
255
255
255
255
255
255
255
255
255
255
255
255
255
255
255
255
255
255
255
255
255
255
255
255
255
255
255
255
255
255
255
255
255
255
255
255
255
255
255
255
255
255
255
255
255
255
255
255
255
255
100
0
0
255
150
0
100
0
0
255
255
255
255
255
255
255
255
255
255
255
255
255
255
255
255
255
254
255
255
255
255
255
255
255
255
255
255
255
255
255
255
255
255
255
255
255
255
255
255
255
255
255
255
255
100
0
0
255
255
0
100
0
0
255
255
255
255
255
255
255
255
255
255
255
255
255
255
255
255
255
255
255
255
255
255
255
255
255
255
255
255
255
255
255
255
255
255
255
255
255
255
255
255
255
255
255
255
255
255
255
255
255
255
255
255
255
255
255
255
255
255
255
255
255
255
255
255
255
255
255
255
255
255
255
255
255
255
255
255
255
255
255
255
255
255
255
255
255
255
255
255
255
255
255
255
255
100
0
0
255
150
0
100
0
0
255
255
255
255
255
255
255
255
255
255
255
255
255
255
255
254
254
254
255
255
255
255
255
255
255
255
255
255
255
255
255
255
255
255
255
255
255
255
255
255
255
255
255
255
255
100
0
0
255
255
0
100
0
0
255
255
255
255
255
255
255
255
255
255
255
255
255
255
255
255
255
255
255
255
255
255
255
255
255
255
255
255
255
255
255
255
255
255
255
255
255
255
255
255
255
255
255
255
255
255
255
255
255
255
255
255
255
255
255
255
255
255
255
255
255
255
255
255
255
255
255
255
255
255
255
255
255
255
255
255
255
255
255
255
255
255
255
255
255
255
255
255
255
255
255
255
255
0
0
255
0
0
255
50
200
255
255
255
255
255
255
255
255
255
255
255
255
255
255
255
255
255
255
255
255
255
255
255
255
255
255
255
255
255
255
255
255
255
255
255
255
255
255
255
255
255
255
255
255
255
255
100
0
0
255
255
0
100
0
0
100
0
0
100
0
0
100
0
0
255
150
0
255
150
0
255
150
0
100
0
0
100
0
0
0
0
0
0
0
0
0
0
0
0
0
0
0
0
0
100
0
0
100
0
0
255
150
0
255
150
0
255
150
0
255
150
0
100
0
0
100
0
0
0
255
0
100
0
0
100
0
0
100
0
0
150
150
0
100
0
0
255
255
255
255
255
255
255
255
255
255
255
255
100
0
0
255
150
0
100
0
0
255
255
255
255
255
255
255
255
255
255
255
255
255
255
255
255
255
255
255
255
255
255
255
255
255
255
255
255
255
255
255
255
255
255
255
255
255
255
255
255
255
255
255
255
255
100
0
0
255
255
0
100
0
0
100
50
200
100
0
0
100
0
0
0
0
0
0
0
0
0
0
0
100
0
0
100
0
0
0
0
0
0
0
0
0
0
0
0
0
0
0
0
0
100
0
0
100
0
0
0
0
0
0
0
0
0
0
0
0
0
0
100
0
0
100
0
0
0
255
0
100
0
0
255
150
0
100
0
0
150
150
0
100
0
0
255
255
255
255
255
255
255
255
255
255
255
255
100
0
0
255
150
0
100
0
0
255
255
255
255
255
255
255
255
255
255
255
255
255
255
255
255
255
255
255
255
255
255
255
255
255
255
255
255
255
255
255
255
255
255
255
255
255
255
255
255
255
255
255
255
255
100
0
0
255
255
0
100
0
0
100
0
0
100
0
0
100
0
0
100
0
0
100
0
0
100
0
0
100
0
0
100
0
0
255
150
0
255
150
0
255
150
0
255
150
0
255
150
0
100
0
0
100
0
0
0
0
0
0
0
0
0
0
0
0
0
0
100
0
0
100
0
0
0
255
0
100
0
0
100
0
0
100
0
0
150
150
0
100
0
0
255
255
255
255
255
255
255
255
255
255
255
255
0
255
0
0
255
0
0
255
0
255
255
255
255
255
255
255
255
255
255
255
255
255
255
255
255
255
255
255
255
255
255
255
255
255
255
255
255
255
255
255
255
255
255
255
255
255
255
255
255
255
255
255
255
255
100
0
0
255
255
0
100
0
0
255
255
255
255
255
255
255
255
255
255
255
255
255
255
255
255
255
255
255
255
255
255
255
255
255
255
255
255
255
255
255
255
255
255
255
255
255
255
255
255
255
255
255
255
255
255
255
255
255
255
255
255
255
255
255
255
255
255
255
255
255
255
255
255
255
255
255
255
255
255
255
255
100
0
0
255
255
0
100
0
0
255
255
255
255
255
255
255
255
253
255
255
255
0
255
0
0
255
0
0
255
0
255
255
255
255
255
255
255
255
255
254
254
254
254
253
253
254
254
254
255
254
254
253
252
252
255
255
255
255
255
255
255
255
255
255
255
255
255
255
255
255
255
255
255
255
255
100
0
0
255
255
0
100
0
0
255
255
255
255
255
255
255
255
255
255
255
255
255
255
255
255
255
255
255
255
255
255
255
255
255
255
255
255
255
255
255
255
255
255
255
255
255
255
255
255
255
255
255
255
255
255
255
255
255
255
255
255
255
255
255
255
255
255
255
255
255
255
255
255
255
255
255
255
255
255
255
255
0
0
255
50
200
255
0
0
255
255
255
255
255
255
255
255
255
255
255
255
255
100
0
0
255
150
0
100
0
0
255
255
255
255
255
255
255
255
255
255
255
255
255
255
255
255
255
255
255
255
255
255
255
255
255
255
255
255
255
255
255
255
255
255
255
255
255
255
255
255
255
255
255
255
255
100
0
0
255
255
0
100
0
0
255
255
255
255
255
255
255
255
255
255
255
255
255
255
255
255
255
255
255
255
255
255
255
255
255
255
255
255
255
255
255
255
255
255
255
255
255
255
255
255
255
255
255
255
255
255
255
255
255
255
255
255
255
255
255
255
255
255
255
255
255
255
255
254
254
254
255
255
255
255
255
255
100
0
0
255
255
0
100
0
0
255
255
255
255
255
255
255
255
255
255
255
255
100
0
0
255
150
0
100
0
0
255
255
255
255
255
255
255
255
255
255
255
255
255
255
255
255
255
255
255
255
255
255
255
255
255
255
255
255
255
255
255
255
255
255
255
255
255
255
255
255
255
255
255
255
255
100
0
0
255
255
0
100
0
0
255
255
255
255
255
255
255
255
255
255
255
255
255
255
255
255
255
255
255
255
255
255
255
255
255
255
255
255
255
255
100
0
0
150
50
0
255
150
0
255
150
0
255
150
0
100
0
0
100
0
0
100
0
0
100
100
100
100
100
100
100
0
0
100
0
0
100
0
0
100
0
0
100
0
0
100
0
0
100
0
0
255
255
255
255
255
255
255
255
255
255
255
255
50
200
255
0
0
255
0
0
255
255
255
255
255
255
255
255
255
255
255
255
255
255
255
255
255
255
255
255
255
255
255
255
255
255
255
255
255
255
255
255
255
255
255
255
255
255
255
255
255
255
255
255
255
255
100
0
0
255
255
0
100
0
0
255
255
255
255
255
255
255
255
255
255
255
255
255
255
255
255
255
255
255
255
255
255
255
255
255
255
255
255
255
255
100
0
0
150
50
0
100
0
0
100
0
0
255
150
0
100
0
0
100
0
0
100
0
0
0
0
0
0
0
0
100
0
0
100
0
0
100
0
0
100
0
0
150
150
0
150
150
0
150
150
0
255
255
255
255
255
255
255
255
255
255
255
255
50
200
255
0
0
255
0
0
255
255
255
255
255
255
255
255
255
255
255
255
255
255
255
255
255
255
255
255
255
255
255
255
255
255
255
255
255
255
255
255
255
255
255
255
255
255
255
255
255
255
255
255
255
255
100
0
0
255
255
0
100
0
0
255
255
255
255
255
255
255
255
255
255
255
255
255
255
255
255
255
255
255
255
255
255
255
255
255
255
255
255
255
255
100
0
0
150
50
0
100
0
0
100
0
0
255
150
0
255
150
0
255
150
0
100
0
0
0
0
0
0
0
0
100
0
0
255
150
0
255
150
0
100
0
0
100
0
0
100
0
0
100
0
0
255
255
255
255
255
255
255
255
255
255
255
255
100
0
0
255
150
0
100
0
0
255
255
255
255
255
255
255
255
255
255
255
255
255
255
255
255
255
255
255
255
255
255
255
255
255
255
255
255
255
255
255
255
255
255
255
255
255
255
255
255
255
255
255
255
255
100
0
0
255
255
0
100
0
0
255
255
255
255
255
255
255
255
255
255
255
255
255
255
255
255
255
255
255
255
255
255
255
255
255
255
255
255
255
255
100
0
0
100
0
0
100
0
0
255
255
255
255
255
255
255
255
255
255
255
255
255
255
255
255
255
255
255
255
255
255
255
255
254
254
254
255
255
255
255
255
255
255
255
255
255
255
255
255
255
255
255
255
255
255
255
255
255
255
255
255
255
255
100
0
0
255
150
0
100
0
0
255
255
255
255
255
255
255
255
255
255
255
255
255
255
255
255
255
255
255
255
255
255
255
255
255
255
255
255
255
255
255
255
255
255
255
255
255
255
255
255
255
255
255
255
255
100
0
0
255
255
0
100
0
0
255
255
255
255
255
255
255
255
255
255
255
255
255
255
255
255
255
255
255
255
255
255
255
255
255
255
255
255
255
255
100
0
0
255
150
0
100
0
0
255
255
255
255
255
255
255
255
255
255
255
255
255
255
255
255
255
255
255
255
255
255
255
255
253
253
255
255
255
255
255
255
255
255
255
255
255
255
255
255
255
255
255
255
255
255
255
255
255
255
255
255
255
255
0
255
0
0
255
0
0
255
0
255
255
255
255
255
255
255
255
255
255
255
255
255
255
255
255
255
255
255
255
255
255
255
255
255
255
255
255
255
255
255
255
255
255
255
255
255
255
255
255
255
255
255
255
255
100
0
0
255
255
0
100
0
0
255
255
255
255
255
255
255
255
255
255
255
255
255
255
255
255
255
255
255
255
255
255
255
255
255
255
255
255
255
255
0
255
0
0
255
0
0
255
0
255
255
255
255
255
255
255
255
255
255
255
255
255
255
255
255
255
255
255
255
255
255
255
255
254
253
253
255
255
255
255
255
255
255
255
255
255
255
255
255
255
255
255
255
255
255
255
255
255
255
255
255
255
255
100
0
0
255
150
0
100
0
0
255
255
255
255
255
255
255
255
255
255
255
255
255
255
255
255
255
255
255
255
255
255
255
255
255
255
255
255
255
255
255
255
255
255
255
255
255
255
255
255
255
255
255
255
255
100
0
0
255
255
0
100
0
0
255
255
255
255
255
255
255
255
255
255
255
255
255
255
255
255
255
255
255
255
255
255
255
255
255
255
255
255
255
255
100
0
0
255
150
0
100
0
0
255
255
255
255
255
255
255
255
255
255
255
255
255
255
255
255
255
255
255
255
255
255
255
255
254
253
253
255
255
255
254
254
254
255
255
255
255
255
255
255
255
255
255
255
255
255
255
255
255
255
255
255
255
255
100
0
0
100
0
0
100
0
0
255
255
255
255
255
255
255
255
255
255
255
255
255
255
255
255
255
255
255
255
255
255
255
255
255
255
255
255
255
255
255
255
255
255
255
255
255
255
255
255
255
255
255
255
255
100
0
0
255
255
0
100
0
0
255
255
255
255
255
255
255
255
255
255
255
255
255
255
255
255
255
255
255
255
255
255
255
255
255
255
255
255
255
255
100
0
0
100
0
0
100
0
0
100
0
0
100
0
0
100
0
0
100
0
0
50
200
255
100
0
0
100
0
0
50
200
255
100
0
0
100
0
0
50
200
255
100
0
0
100
0
0
50
200
255
100
0
0
255
150
0
255
150
0
100
0
0
100
0
0
150
50
0
100
0
0
255
255
255
255
255
255
255
255
255
255
255
255
255
255
255
255
255
255
255
255
255
255
255
255
255
255
255
255
255
255
255
255
255
255
255
255
255
255
255
255
255
255
255
255
255
100
0
0
255
255
0
100
0
0
255
255
255
255
255
255
255
255
255
255
255
255
255
255
255
255
255
255
255
255
255
255
255
255
255
255
255
255
255
255
150
50
0
150
50
0
150
50
0
100
0
0
100
0
0
0
0
0
0
0
0
0
0
0
0
0
0
0
0
0
0
0
0
0
0
0
0
0
0
0
0
0
0
0
0
0
0
0
0
0
0
0
0
0
0
0
0
0
0
0
100
0
0
100
0
0
150
50
0
100
0
0
255
255
255
255
255
255
255
255
255
255
255
255
255
255
255
255
255
255
255
255
255
255
255
255
255
255
255
255
255
255
255
255
255
255
255
255
255
255
255
255
255
255
255
255
255
100
0
0
100
0
0
100
0
0
255
255
255
255
255
255
255
255
255
255
255
255
255
255
255
255
255
255
255
255
255
255
255
255
255
255
255
255
255
255
100
0
0
100
0
0
100
0
0
100
0
0
100
0
0
100
0
0
100
0
0
100
0
0
255
150
0
255
150
0
100
0
0
255
150
0
255
150
0
100
0
0
255
150
0
255
150
0
100
0
0
100
0
0
100
0
0
100
0
0
100
0
0
100
0
0
150
50
0
100
0
0
255
255
255
255
255
255
255
255
255
255
255
255
255
255
255
255
255
255
255
255
255
255
255
255
255
255
255
255
255
255
255
255
255
255
255
255
255
255
255
255
255
255
255
255
255
255
50
255
255
50
255
255
50
255
