# Blender v2.79 (sub 0) OBJ File: 'cube.blend'
# www.blender.org
mtllib cube.mtl
o Cube
v -2.413163 -2.413163 2.413163
v -2.413163 2.413163 2.413163
v -2.413163 -2.413163 -2.413163
v -2.413163 2.413163 -2.413163
v 2.413163 -2.413163 2.413163
v 2.413163 2.413163 2.413163
v 2.413163 -2.413163 -2.413163
v 2.413163 2.413163 -2.413163
vt 0.336355 0.499831
vt 0.336355 0.746390
vt 0.009055 0.746390
vt 0.009055 0.499831
vt 0.663655 0.746390
vt 0.663655 0.992949
vt 0.336355 0.992949
vt 0.990955 0.746389
vt 0.990955 0.499831
vt 0.663655 0.499831
vt 0.336355 0.253272
vt 0.663655 0.253272
vt 0.663655 0.006713
vt 0.336355 0.006713
vn 1.0000 0.0000 0.0000
vn 0.0000 0.0000 1.0000
vn 0.0000 0.0000 -1.0000
vn 0.0000 1.0000 0.0000
usemtl None
s off
f 1/1/1 3/2/1 4/3/1 2/4/1
f 3/2/2 7/5/2 8/6/2 4/7/2
f 7/5/1 8/8/1 6/9/1 5/10/1
f 5/10/3 1/1/3 2/11/3 6/12/3
f 3/2/4 1/1/4 5/10/4 7/5/4
f 8/13/4 4/14/4 2/11/4 6/12/4
