# Blender v2.79 (sub 0) OBJ File: 'cube.blend'
# www.blender.org
mtllib cube.mtl
o Cube
v -0.498391 -0.498391 0.498784
v -0.498391 0.498391 0.498784
v -0.498391 -0.498391 -0.497998
v -0.498391 0.498391 -0.497998
v 0.498391 -0.498391 0.498784
v 0.498391 0.498391 0.498784
v 0.498391 -0.498391 -0.497998
v 0.498391 0.498391 -0.497998
vt 0.337129 0.500358
vt 0.338079 0.746627
vt 0.011163 0.747342
vt 0.010213 0.501073
vt 0.339029 0.992896
vt 0.665945 0.992181
vt 0.664995 0.745912
vt 0.991911 0.745196
vt 0.990961 0.498927
vt 0.664045 0.499642
vt 0.336180 0.254088
vt 0.663096 0.253373
vt 0.662146 0.007103
vt 0.335230 0.007819
vn 1.0000 0.0000 0.0000
vn 0.0000 0.0000 -1.0000
vn 0.0000 1.0000 0.0000
usemtl None
s off
f 1/1/1 3/2/1 4/3/1 2/4/1
f 3/2/2 4/5/2 8/6/2 7/7/2
f 7/7/1 8/8/1 6/9/1 5/10/1
f 5/10/2 1/1/2 2/11/2 6/12/2
f 3/2/3 1/1/3 5/10/3 7/7/3
f 8/13/3 4/14/3 2/11/3 6/12/3
